<svg width="11" height="20" viewBox="0 0 11 20" fill="none" xmlns="http://www.w3.org/2000/svg">
<path d="M10.62 0.990007C10.5039 0.873599 10.366 0.781241 10.2141 0.718225C10.0622 0.655209 9.89942 0.622772 9.735 0.622772C9.57058 0.622772 9.40778 0.655209 9.25592 0.718225C9.10406 0.781241 8.96612 0.873599 8.85 0.990007L0.540003 9.30001C0.447299 9.39252 0.373752 9.50241 0.32357 9.62338C0.273389 9.74436 0.247559 9.87404 0.247559 10.005C0.247559 10.136 0.273389 10.2657 0.32357 10.3866C0.373752 10.5076 0.447299 10.6175 0.540003 10.71L8.85 19.02C9.34 19.51 10.13 19.51 10.62 19.02C11.11 18.53 11.11 17.74 10.62 17.25L3.38 10L10.63 2.75001C11.11 2.27001 11.11 1.47001 10.62 0.990007Z" fill="#FDEAE3"/>
</svg>
