<svg width="29" height="30" viewBox="0 0 29 30" fill="none" xmlns="http://www.w3.org/2000/svg">
<path d="M20.8 26.2C20.7904 26.6261 20.866 27.0499 21.0224 27.4464C21.1787 27.843 21.4128 28.2043 21.7107 28.5091C22.0087 28.8139 22.3645 29.0561 22.7573 29.2216C23.1502 29.387 23.5721 29.4722 23.9984 29.4724C24.4246 29.4725 24.8466 29.3874 25.2395 29.2222C25.6325 29.057 25.9884 28.8149 26.2865 28.5102C26.5846 28.2055 26.8188 27.8444 26.9754 27.4479C27.132 27.0515 27.2078 26.6278 27.1984 26.2016C27.1799 25.3655 26.8348 24.5699 26.2371 23.985C25.6393 23.4002 24.8363 23.0726 24 23.0724C23.1637 23.0721 22.3605 23.3993 21.7624 23.9839C21.1644 24.5685 20.8189 25.3639 20.8 26.2ZM4.8 26.2C4.8 27.0487 5.13714 27.8626 5.73726 28.4627C6.33737 29.0629 7.15131 29.4 8 29.4C8.84869 29.4 9.66263 29.0629 10.2627 28.4627C10.8629 27.8626 11.2 27.0487 11.2 26.2C11.2 25.3513 10.8629 24.5374 10.2627 23.9373C9.66263 23.3371 8.84869 23 8 23C7.15131 23 6.33737 23.3371 5.73726 23.9373C5.13714 24.5374 4.8 25.3513 4.8 26.2ZM10.4752 18.4752L28.184 13.416C28.3572 13.3583 28.5087 13.2493 28.6187 13.1037C28.7287 12.958 28.7919 12.7824 28.8 12.6V3.80001H6.4V1.24001C6.4 0.888006 6.1104 0.600006 5.7616 0.600006H0.6384C0.469069 0.60085 0.306937 0.6686 0.187351 0.788487C0.0677642 0.908373 0.000420174 1.07067 0 1.24001L0 3.80001H3.2L6.256 18.1312L6.4 19.64V22.2784C6.4 22.6288 6.688 22.9184 7.04 22.9184H28.16C28.512 22.9184 28.8 22.6272 28.8 22.2784V19.8H10.8032C8.9632 19.8 8.9248 18.9184 10.4752 18.4752Z" fill="#252525"/>
</svg>
