<svg width="24" height="26" viewBox="0 0 24 26" fill="none" xmlns="http://www.w3.org/2000/svg">
<path d="M22.7216 9.11195L12.3242 1.06011C12.1819 0.950065 12.0067 0.891031 11.8268 0.892482C11.6469 0.893933 11.4727 0.955784 11.3322 1.06811L1.26722 9.11963C1.17348 9.19482 1.09782 9.2901 1.04582 9.39843C0.993813 9.50676 0.966788 9.62538 0.966736 9.74555V24.3056C0.966694 24.4108 0.987399 24.5151 1.02767 24.6124C1.06794 24.7096 1.12698 24.798 1.20143 24.8725C1.27587 24.9469 1.36425 25.0059 1.46153 25.0462C1.5588 25.0865 1.66306 25.1072 1.76834 25.1072H7.75138C7.96395 25.1071 8.16779 25.0226 8.3181 24.8723C8.46841 24.722 8.55289 24.5181 8.55298 24.3056V15.3907H15.4458V24.3056C15.4458 24.5181 15.5302 24.722 15.6806 24.8724C15.8309 25.0227 16.0348 25.1072 16.2474 25.1072H22.2314C22.4439 25.1071 22.6478 25.0226 22.7981 24.8723C22.9484 24.722 23.0329 24.5181 23.033 24.3056V9.74555C23.0331 9.62315 23.005 9.50237 22.951 9.39251C22.897 9.28266 22.8186 9.18667 22.7216 9.11195Z" fill="#252525"/>
</svg>
