<svg width="12" height="30" viewBox="0 0 12 30" fill="none" xmlns="http://www.w3.org/2000/svg">
<path d="M2.00008 29.6667C1.26675 29.6667 0.666748 29.0667 0.666748 28.3333V16.3333C0.666748 15.6 1.26675 15 2.00008 15H10.0001C10.7334 15 11.3334 15.6 11.3334 16.3333V28.3333C11.3334 29.0667 10.7334 29.6667 10.0001 29.6667H2.00008ZM3.33341 13.6667C2.60008 13.6667 2.00008 13.0667 2.00008 12.3333V6.00001C2.00008 6.00001 4.66675 3.00001 5.66675 0.333344C7.10675 1.22668 8.56008 2.10668 9.28008 4.10668C10.0001 6.10668 10.0001 9.22668 10.0001 12.3333C10.0001 13.0667 9.40008 13.6667 8.66675 13.6667H3.33341Z" fill="black"/>
</svg>
