<svg width="28" height="28" viewBox="0 0 28 28" fill="none" xmlns="http://www.w3.org/2000/svg">
<path d="M26.9511 11.9733L23.9733 11.0844C23.7675 10.3656 23.4843 9.6712 23.1289 9.01334L24.5867 6.28445C24.6414 6.18144 24.6614 6.06354 24.6438 5.94825C24.6262 5.83296 24.5719 5.72642 24.4889 5.64445L22.3645 3.51111C22.2825 3.42815 22.1759 3.37384 22.0607 3.35622C21.9454 3.33861 21.8275 3.35864 21.7245 3.41334L19.0133 4.86223C18.349 4.48948 17.6455 4.19137 16.9156 3.97334L16.0267 1.03112C15.9891 0.922685 15.918 0.828981 15.8238 0.76349C15.7296 0.697999 15.617 0.6641 15.5022 0.666671H12.4978C12.3824 0.667208 12.2701 0.704568 12.1774 0.773313C12.0847 0.842059 12.0163 0.938602 11.9822 1.04889L11.0933 3.98223C10.3574 4.1991 9.64781 4.49723 8.97779 4.87112L6.31113 3.43112C6.20812 3.37642 6.09022 3.35639 5.97493 3.374C5.85964 3.39161 5.7531 3.44593 5.67113 3.52889L3.51113 5.63556C3.42816 5.71753 3.37385 5.82407 3.35623 5.93936C3.33862 6.05466 3.35865 6.17255 3.41335 6.27556L4.85335 8.94223C4.48007 9.60942 4.18195 10.316 3.96446 11.0489L1.02224 11.9378C0.911946 11.9718 0.815403 12.0402 0.746657 12.1329C0.677912 12.2257 0.640552 12.3379 0.640015 12.4533V15.4578C0.640552 15.5732 0.677912 15.6855 0.746657 15.7782C0.815403 15.8709 0.911946 15.9393 1.02224 15.9733L3.98224 16.8622C4.2021 17.583 4.50017 18.2775 4.87113 18.9333L3.41335 21.7244C3.35865 21.8275 3.33862 21.9454 3.35623 22.0606C3.37385 22.1759 3.42816 22.2825 3.51113 22.3644L5.63557 24.4889C5.71754 24.5719 5.82408 24.6262 5.93938 24.6438C6.05467 24.6614 6.17256 24.6414 6.27557 24.5867L9.02224 23.12C9.67198 23.4706 10.3574 23.7507 11.0667 23.9556L11.9556 26.9511C11.9896 27.0614 12.058 27.1579 12.1507 27.2267C12.2435 27.2954 12.3557 27.3328 12.4711 27.3333H15.4756C15.591 27.3328 15.7032 27.2954 15.796 27.2267C15.8887 27.1579 15.9571 27.0614 15.9911 26.9511L16.88 23.9467C17.5833 23.7408 18.2626 23.4607 18.9067 23.1111L21.6711 24.5867C21.7741 24.6414 21.892 24.6614 22.0073 24.6438C22.1226 24.6262 22.2292 24.5719 22.3111 24.4889L24.4356 22.3644C24.5185 22.2825 24.5729 22.1759 24.5905 22.0606C24.6081 21.9454 24.588 21.8275 24.5333 21.7244L23.0578 18.9689C23.411 18.3224 23.6941 17.64 23.9022 16.9333L26.8978 16.0444C27.0081 16.0104 27.1046 15.942 27.1734 15.8493C27.2421 15.7566 27.2795 15.6443 27.28 15.5289V12.4978C27.2853 12.3872 27.2566 12.2778 27.1978 12.184C27.139 12.0903 27.0529 12.0168 26.9511 11.9733ZM14 18.8889C13.0331 18.8889 12.0879 18.6022 11.2839 18.065C10.4799 17.5278 9.8533 16.7642 9.48327 15.8709C9.11324 14.9776 9.01643 13.9946 9.20506 13.0462C9.3937 12.0979 9.85932 11.2268 10.543 10.543C11.2268 9.85931 12.0979 9.39369 13.0462 9.20505C13.9946 9.01642 14.9776 9.11323 15.8709 9.48326C16.7642 9.85329 17.5278 10.4799 18.065 11.2839C18.6022 12.0879 18.8889 13.0331 18.8889 14C18.8889 15.2966 18.3738 16.5401 17.457 17.457C16.5401 18.3738 15.2966 18.8889 14 18.8889Z" fill="#252525"/>
</svg>
