<svg width="15" height="16" viewBox="0 0 15 16" fill="none" xmlns="http://www.w3.org/2000/svg">
<path d="M10.4 13.6C10.3952 13.8131 10.433 14.025 10.5112 14.2232C10.5894 14.4215 10.7064 14.6021 10.8554 14.7545C11.0043 14.907 11.1823 15.0281 11.3787 15.1108C11.5751 15.1935 11.7861 15.2361 11.9992 15.2362C12.2123 15.2362 12.4233 15.1937 12.6198 15.1111C12.8162 15.0285 12.9942 14.9075 13.1433 14.7551C13.2923 14.6028 13.4094 14.4222 13.4877 14.224C13.566 14.0257 13.6039 13.8139 13.5992 13.6008C13.59 13.1828 13.4174 12.7849 13.1185 12.4925C12.8196 12.2001 12.4181 12.0363 12 12.0362C11.5818 12.0361 11.1803 12.1997 10.8812 12.4919C10.5822 12.7842 10.4095 13.182 10.4 13.6ZM2.4 13.6C2.4 14.0244 2.56857 14.4313 2.86863 14.7314C3.16869 15.0314 3.57565 15.2 4 15.2C4.42435 15.2 4.83131 15.0314 5.13137 14.7314C5.43143 14.4313 5.6 14.0244 5.6 13.6C5.6 13.1757 5.43143 12.7687 5.13137 12.4686C4.83131 12.1686 4.42435 12 4 12C3.57565 12 3.16869 12.1686 2.86863 12.4686C2.56857 12.7687 2.4 13.1757 2.4 13.6ZM5.2376 9.7376L14.092 7.208C14.1786 7.17913 14.2544 7.12467 14.3094 7.05183C14.3643 6.97899 14.3959 6.89118 14.4 6.8V2.4H3.2V1.12C3.2 0.944003 3.0552 0.800003 2.8808 0.800003H0.3192C0.234534 0.800425 0.153469 0.8343 0.0936754 0.894243C0.0338821 0.954187 0.000210087 1.03534 0 1.12L0 2.4H1.6L3.128 9.5656L3.2 10.32V11.6392C3.2 11.8144 3.344 11.9592 3.52 11.9592H14.08C14.256 11.9592 14.4 11.8136 14.4 11.6392V10.4H5.4016C4.4816 10.4 4.4624 9.9592 5.2376 9.7376Z" fill="#FDEAE3"/>
</svg>
