<svg width="64" height="56" viewBox="0 0 64 56" fill="none" xmlns="http://www.w3.org/2000/svg">
<path fill-rule="evenodd" clip-rule="evenodd" d="M48.0078 12H8.00781C6.94695 12 5.92953 12.4214 5.17939 13.1716C4.42924 13.9217 4.00781 14.9391 4.00781 16V48C4.00781 49.0609 4.42924 50.0783 5.17939 50.8284C5.92953 51.5786 6.94695 52 8.00781 52H48.0078C49.0687 52 50.0861 51.5786 50.8362 50.8284C51.5864 50.0783 52.0078 49.0609 52.0078 48V16C52.0078 14.9391 51.5864 13.9217 50.8362 13.1716C50.0861 12.4214 49.0687 12 48.0078 12ZM8.00781 8C5.88608 8 3.85125 8.84285 2.35096 10.3431C0.850667 11.8434 0.0078125 13.8783 0.0078125 16V48C0.0078125 50.1217 0.850667 52.1566 2.35096 53.6569C3.85125 55.1571 5.88608 56 8.00781 56H48.0078C50.1295 56 52.1644 55.1571 53.6647 53.6569C55.165 52.1566 56.0078 50.1217 56.0078 48V16C56.0078 13.8783 55.165 11.8434 53.6647 10.3431C52.1644 8.84285 50.1295 8 48.0078 8H8.00781Z" fill="#FDEAE3"/>
<path d="M42.5918 30.584C42.8889 30.2878 43.2716 30.0924 43.6858 30.0257C44.1 29.9589 44.5247 30.0241 44.8998 30.212L52.0078 38V52H4.00781V48L14.5918 38.584C14.9187 38.2583 15.3483 38.0556 15.8076 38.0104C16.2669 37.9652 16.7277 38.0802 17.1118 38.336L27.7518 45.428L42.5918 30.588V30.584Z" fill="#FDEAE3"/>
<path fill-rule="evenodd" clip-rule="evenodd" d="M18.008 32C19.5993 32 21.1254 31.3679 22.2506 30.2426C23.3759 29.1174 24.008 27.5913 24.008 26C24.008 24.4087 23.3759 22.8826 22.2506 21.7574C21.1254 20.6321 19.5993 20 18.008 20C16.4167 20 14.8906 20.6321 13.7654 21.7574C12.6401 22.8826 12.008 24.4087 12.008 26C12.008 27.5913 12.6401 29.1174 13.7654 30.2426C14.8906 31.3679 16.4167 32 18.008 32ZM16 4H56C57.0609 4 58.0783 4.42143 58.8284 5.17157C59.5786 5.92172 60 6.93913 60 8V40C60 41.0609 59.5786 42.0783 58.8284 42.8284C58.0783 43.5786 57.0609 44 56 44V48C58.1217 48 60.1566 47.1571 61.6569 45.6569C63.1571 44.1566 64 42.1217 64 40V8C64 5.87827 63.1571 3.84344 61.6569 2.34315C60.1566 0.842855 58.1217 0 56 0H16C13.8783 0 11.8434 0.842855 10.3431 2.34315C8.84285 3.84344 8 5.87827 8 8H12C12 6.93913 12.4214 5.92172 13.1716 5.17157C13.9217 4.42143 14.9391 4 16 4Z" fill="#FDEAE3"/>
</svg>
